PathFileType	4	(X/Y/Z)	SUBJ32_3_walk_RCNL2025.trc
DataRate	CameraRate	NumFrames	NumMarkers	Units	OrigDataRate	OrigDataStartFrame	OrigNumFrames
100	100	6	25	mm	100	99	393
Frame#	Time	R_Shoulder			L_Shoulder			C7			J_Notch			R_Elbow			L_Elbow			R_Wrist			L_Wrist			R_Asis			L_Asis			Sacral			Thoracic			Sternum			R_Thigh_Lateral			R_Knee_Lateral			R_Shank_Lateral			R_Ankle_Lateral			R_Heel			R_Toe			L_Thigh_Lateral			L_Knee_Lateral			L_Shank_Lateral			L_Ankle_Lateral			L_Heel			L_Toe		
		X1	Y1	Z1	X2	Y2	Z2	X3	Y3	Z3	X4	Y4	Z4	X5	Y5	Z5	X6	Y6	Z6	X7	Y7	Z7	X8	Y8	Z8	X9	Y9	Z9	X10	Y10	Z10	X11	Y11	Z11	X12	Y12	Z12	X13	Y13	Z13	X14	Y14	Z14	X15	Y15	Z15	X16	Y16	Z16	X17	Y17	Z17	X18	Y18	Z18	X19	Y19	Z19	X20	Y20	Z20	X21	Y21	Z21	X22	Y22	Z22	X23	Y23	Z23	X24	Y24	Z24	X25	Y25	Z25
99	0.98000000	-594.846436	1373.596802	41.238510	-608.390686	1367.534424	-329.124451	-627.813843	1447.774902	-134.471329	-503.438751	1346.447266	-143.758652	-664.395569	1045.954468	153.033081	-661.514099	1050.018921	-429.798737	-590.712830	808.936615	183.577126	-539.729980	822.028259	-449.537384	-524.371948	915.220520	-15.676634	-533.899475	905.380127	-267.187195	-727.828735	954.037720	-132.693390	-728.069214	1212.742310	-135.980713	-435.311707	1122.215088	-141.874756	-528.886597	557.474304	78.159035	-515.503357	474.346985	35.027695	-590.905457	342.247925	103.296097	-711.706604	151.407227	-8.380018	-760.716675	163.399490	-62.875298	-606.779846	78.578430	-33.051182	-618.905579	558.653503	-350.660919	-615.839111	466.038788	-302.748718	-642.946106	241.846558	-316.100647	-664.298889	59.625832	-220.469437	-712.439026	52.834961	-171.712250	-527.830444	41.332287	-200.369568
100	0.99000000	-584.949341	1373.230713	41.384552	-598.163452	1367.678589	-329.026733	-617.484436	1447.676147	-134.363922	-493.436096	1346.098389	-143.660950	-657.661865	1045.810303	152.077789	-649.121948	1050.553223	-431.493408	-586.694489	807.921051	182.674019	-523.158173	824.909943	-450.750259	-513.722412	915.058838	-16.330597	-524.929749	904.975159	-267.815582	-717.957336	953.864441	-132.124542	-718.032166	1212.588989	-135.836411	-425.489716	1121.900024	-142.556564	-512.711609	558.525452	77.079994	-498.759399	475.165253	33.353359	-568.938171	339.351349	101.715691	-680.482727	142.637756	-9.784967	-729.765381	151.638885	-64.662125	-571.357239	76.183380	-33.045158	-613.942749	558.595154	-350.493225	-612.494568	465.894989	-302.385223	-641.561401	241.938705	-315.782623	-664.263428	59.762852	-220.173096	-712.404724	52.836082	-171.214615	-527.841492	41.231552	-200.284164
101	1.00000000	-574.997253	1372.655273	41.584538	-587.904175	1367.637207	-328.872009	-607.115723	1447.388794	-134.187561	-483.422302	1345.548096	-143.498535	-650.840576	1045.510742	151.229431	-636.730591	1050.916992	-433.106049	-582.462646	806.806366	181.799057	-506.790359	827.585510	-451.877823	-503.252350	914.643921	-16.919603	-515.919312	904.367004	-268.339905	-708.098816	953.532410	-131.560501	-707.982361	1212.287109	-135.636490	-415.657898	1121.359375	-143.212753	-497.115387	559.363770	75.993523	-482.615265	475.705627	31.705324	-547.295471	336.233032	100.090645	-648.585022	133.848740	-11.282951	-697.927979	139.839951	-66.587883	-535.559204	73.981010	-33.126488	-608.761902	558.443176	-350.272003	-608.910522	465.698090	-301.963867	-639.970154	242.007980	-315.427795	-664.195923	59.947258	-219.873932	-712.347717	52.919392	-170.744049	-527.846558	41.100628	-200.136200
102	1.01000000	-564.979431	1371.872070	41.836784	-577.598206	1367.417480	-328.660553	-596.701599	1446.916748	-133.938858	-473.384796	1344.793701	-143.269318	-643.907898	1045.056274	150.486984	-624.337219	1051.117432	-434.628235	-577.995483	805.594360	180.958893	-490.647919	830.037415	-452.920837	-492.935699	914.004700	-17.427259	-506.860229	903.569763	-268.761627	-698.246887	953.044250	-131.004410	-697.912903	1211.843018	-135.385193	-405.812439	1120.594849	-143.828537	-482.175507	559.947083	74.918617	-467.130524	475.934265	30.103527	-526.071289	332.956024	98.446022	-616.044678	125.191315	-12.835998	-665.266113	128.192810	-68.568932	-499.457245	72.101692	-33.334820	-603.347229	558.195129	-350.013733	-605.064148	465.439697	-301.507172	-638.163208	242.046982	-315.048767	-664.099365	60.167969	-219.571213	-712.266968	53.091270	-170.305222	-527.844971	40.960793	-199.952438
103	1.02000000	-554.888428	1370.889771	42.140453	-567.229370	1367.031128	-328.391876	-586.237671	1446.268066	-133.616013	-463.316101	1343.835815	-142.967651	-636.845459	1044.451416	149.847702	-611.945312	1051.166260	-436.049103	-573.276367	804.289520	180.161346	-474.753693	832.256744	-453.880264	-482.732178	913.173401	-17.839024	-497.745850	902.601196	-269.086517	-688.393799	952.403992	-130.454422	-687.815063	1211.263794	-135.088013	-395.948883	1119.613892	-144.387177	-467.967621	560.228271	73.871880	-452.355957	475.812317	28.566549	-505.326965	329.563080	96.812447	-582.906555	116.823090	-14.397927	-631.856628	116.895760	-70.519157	-463.149109	70.658791	-33.691589	-597.690552	557.850220	-349.738525	-600.942627	465.116486	-301.039093	-636.140503	242.050079	-314.661560	-663.973633	60.413479	-219.267670	-712.161682	53.350258	-169.894455	-527.834900	40.828815	-199.756592
104	1.03000000	-544.720581	1369.722290	42.495697	-556.782166	1366.493286	-328.064117	-575.718811	1445.451904	-133.220612	-453.214417	1342.680542	-142.585953	-629.639954	1043.705322	149.308167	-599.566162	1051.077026	-437.357086	-568.293884	802.896484	179.413757	-459.128098	834.241394	-454.756409	-472.597076	912.179138	-18.142479	-488.571960	901.482239	-269.319977	-678.530762	951.616211	-129.904251	-677.679993	1210.556274	-134.748993	-386.062805	1118.429565	-144.873001	-454.566345	560.157959	72.864304	-438.323212	475.301178	27.107096	-485.066528	326.075531	95.222717	-549.234070	108.911110	-15.916304	-597.793762	106.152420	-72.360168	-426.736237	69.740730	-34.207722	-591.793884	557.410706	-349.466156	-596.545776	464.729279	-300.582611	-633.909973	242.013687	-314.286011	-663.813721	60.670818	-218.969208	-712.029724	53.687721	-169.505814	-527.814819	40.712479	-199.563370
